<svg width="180" height="52" viewBox="0 0 180 52" fill="none" xmlns="http://www.w3.org/2000/svg">
<g id="logo-ranok-red" clip-path="url(#clip0_1_518)">
<g id="Group">
<path id="Vector" d="M12.9109 6.11175C17.2575 6.11175 20.8016 9.64508 20.8016 13.9759C20.8016 18.3066 17.2575 21.8359 12.9109 21.8359C8.565 21.8359 5.02159 18.306 5.02159 13.9759C5.02159 9.64508 8.56568 6.11175 12.9109 6.11175Z" fill="#EC2D2D"/>
<path id="Vector_2" d="M38.7927 30.556C43.1373 30.556 46.682 34.0839 46.682 38.4133C46.682 42.7441 43.1373 46.2767 38.7927 46.2767C34.4461 46.2767 30.9007 42.7434 30.9007 38.4133C30.9007 34.0839 34.4461 30.556 38.7927 30.556Z" fill="#EC2D2D"/>
<path id="Vector_3" d="M37.9807 0C45.4555 0 51.5523 6.07563 51.5523 13.5226C51.5523 19.6637 47.4082 24.8682 41.7682 26.5088C40.1134 26.9893 39.135 26.9321 37.5286 26.9321C31.9364 26.9321 26.8718 31.1013 26.8718 37.3698C26.8718 38.5203 26.9352 39.0881 26.895 39.9973C26.8677 40.6182 26.8173 41.55 26.5691 42.3645C24.885 47.9262 19.6895 52 13.5716 52C6.09818 52 0 45.9244 0 38.4719C0 32.9109 3.75546 27.9592 8.69182 25.8156C9.20182 25.5934 9.71864 25.3726 10.2573 25.2445C13.0773 24.5642 16.4066 25.4005 18.7411 24.2357C22.0916 22.5645 24.1548 18.3393 24.4466 16.1242C24.7493 13.8157 24.3048 11.726 25.0561 9.40039C26.8125 3.95931 31.948 0 37.9807 0Z" fill="#EC2D2D"/>
<path id="Vector_4" d="M62.1245 35.7047H53.4893V44.7732H62.1245V41.6951L65.3291 42.3863V44.0834C65.3291 45.3948 65.0939 46.2877 64.6186 46.7593C64.1461 47.2357 63.2441 47.4716 61.9139 47.4716H53.698C52.3589 47.4716 51.4568 47.2357 50.9857 46.7593C50.5186 46.289 50.2834 45.3948 50.2834 44.0834V36.5301C50.2834 35.2297 50.5186 34.3402 50.9857 33.8583C51.4568 33.3819 52.3589 33.1406 53.698 33.1406H61.9132C63.2434 33.1406 64.1455 33.3819 64.618 33.8583C65.0932 34.3402 65.3284 35.2297 65.3284 36.5301V37.8892L62.1239 38.414L62.1245 35.7047ZM78.3586 35.6195H71.1518V39.6081H78.3586C78.915 39.6081 79.2921 39.5277 79.4973 39.3628C79.7025 39.1965 79.8034 38.8959 79.8034 38.4726V36.7455C79.8034 36.3277 79.7025 36.0387 79.4973 35.8724C79.2921 35.7054 78.9157 35.6195 78.3586 35.6195ZM67.9984 47.4709V33.1413H79.7768C80.8705 33.1413 81.6614 33.3546 82.155 33.7949C82.6439 34.2386 82.8886 34.9454 82.8886 35.9133V39.2851C82.8886 40.2543 82.6439 40.9556 82.155 41.3953C81.6607 41.8396 80.8698 42.0632 79.7768 42.0632H77.9802L84.3334 47.4709H79.7366L74.188 42.0632H71.1511V47.4709H67.9984ZM85.9895 47.4709V33.1413H100.089V35.5752H89.1955V38.7834H95.5561V41.218H89.1955V44.7725H100.217V47.4709H85.9895ZM107.592 41.7538H113.62L110.652 35.9187L107.592 41.7538ZM101.43 47.4709L109.219 33.1413H112.306L120.201 47.4709H116.603L114.95 44.3438H106.223L104.622 47.4709H101.43ZM127.166 35.7047V47.4716H123.961V35.7047H117.642V33.1406H133.511V35.7047H127.166ZM135.361 47.4709V33.1413H138.566V47.4709H135.361ZM148.186 47.4709L140.227 33.1413H143.886L149.465 43.4986L154.777 33.1413H157.968L150.401 47.4709H148.186ZM159.64 47.4709V33.1413H173.74V35.5752H162.85V38.7834H169.204V41.218H162.85V44.7725H173.872V47.4709H159.64Z" fill="#EC2D2D" stroke="#EC2D2D" stroke-width="0.216" stroke-miterlimit="22.9256"/>
<path id="Vector_5" d="M49.9664 28.0505H173.593C173.866 26.5504 175.188 25.0073 176.769 25.0073C178.549 25.0073 179.999 26.4543 179.999 28.2278C179.999 30.0005 178.549 31.4441 176.769 31.4441C175.278 31.4441 174.018 30.4279 173.649 29.0572H49.9664V28.0505Z" fill="#EC2D2D"/>
<path id="Vector_6" d="M110.758 24.2528H105.808L102.716 19.4292V24.2528H98.6223V9.63554H104.68C106.309 9.63554 107.56 10.0356 108.429 10.8365C109.3 11.6373 109.735 12.6979 109.735 14.0208C109.735 15.2736 109.401 16.2898 108.732 17.0696C108.23 17.6544 107.542 18.1001 106.664 18.4061L110.758 24.2528ZM105.64 14.5218C105.64 14.0345 105.509 13.6514 105.243 13.3727C104.924 13.025 104.415 12.8506 103.719 12.8506H102.716V16.2128H103.719C104.387 16.2128 104.89 16.039 105.224 15.69C105.502 15.399 105.64 15.0091 105.64 14.5218Z" fill="#EC2D2D"/>
<path id="Vector_7" d="M126.931 24.2528H122.545L121.751 21.7261H116.78L115.965 24.2528H111.578L116.78 9.63622H121.751L126.931 24.2528ZM120.936 18.5104L119.265 13.1232L117.594 18.5104H120.936Z" fill="#EC2D2D"/>
<path id="Vector_8" d="M141.7 24.2528H137.458L132.049 15.4822V24.2528H128.101V9.63554H132.403L137.751 18.2596V9.63554H141.7V24.2528Z" fill="#EC2D2D"/>
<path id="Vector_9" d="M158.425 16.9435C158.425 19.0877 157.784 20.8701 156.503 22.2898C155.083 23.8765 153.106 24.6706 150.571 24.6706C148.051 24.6706 146.073 23.869 144.639 22.2694C143.358 20.8353 142.717 19.0605 142.717 16.9442C142.717 14.8285 143.358 13.0544 144.639 11.6203C146.073 10.0186 148.051 9.21841 150.571 9.21841C153.091 9.21841 155.069 10.0186 156.503 11.6203C157.784 13.0537 158.425 14.8278 158.425 16.9435ZM154.205 16.9435C154.205 15.6082 153.837 14.5566 153.099 13.7911C152.416 13.0809 151.574 12.7258 150.571 12.7258C149.554 12.7258 148.712 13.0734 148.044 13.7693C147.306 14.5354 146.936 15.5933 146.936 16.9428C146.936 18.2794 147.306 19.3304 148.044 20.0965C148.726 20.8067 149.568 21.1618 150.571 21.1618C151.587 21.1618 152.431 20.8135 153.099 20.1176C153.837 19.3522 154.205 18.2944 154.205 16.9435Z" fill="#EC2D2D"/>
<path id="Vector_10" d="M172.894 24.2528H167.776L163.537 17.9672V24.2528H159.443V9.63554H163.537V15.7746L167.944 9.63554H172.749L167.192 16.7145L172.894 24.2528Z" fill="#EC2D2D"/>
</g>
</g>
<defs>
<clipPath id="clip0_1_518">
<rect width="180" height="52" fill="white"/>
</clipPath>
</defs>
</svg>
